<svg width="24" height="24" viewBox="0 0 24 24" fill="none" xmlns="http://www.w3.org/2000/svg">
<path d="M12 0C15.259 0 15.668 0.014 16.949 0.073C21.311 0.273 23.732 2.699 23.928 7.053C23.986 8.333 24 8.741 24 12C24 15.259 23.986 15.668 23.927 16.948C23.73 21.31 21.302 23.728 16.948 23.928C15.668 23.986 15.259 24 12 24C8.741 24 8.333 23.986 7.052 23.928C2.69 23.728 0.272 21.306 0.072 16.948C0.014 15.668 0 15.259 0 12C0 8.741 0.014 8.333 0.073 7.052C0.273 2.69 2.695 0.272 7.053 0.072C8.333 0.014 8.741 0 12 0ZM12 4.79298C8.01988 4.79298 4.79298 8.01988 4.79298 12C4.79298 15.9801 8.01988 19.2082 12 19.2082C15.9801 19.2082 19.207 15.9813 19.207 12C19.207 8.01988 15.9801 4.79298 12 4.79298ZM19.4924 2.82456C18.5614 2.82456 17.807 3.57895 17.807 4.50877C17.807 5.4386 18.5614 6.19298 19.4924 6.19298C20.4222 6.19298 21.1754 5.4386 21.1754 4.50877C21.1754 3.57895 20.4222 2.82456 19.4924 2.82456ZM12 16.6784C9.41637 16.6784 7.32164 14.5848 7.32164 12C7.32164 9.41637 9.41637 7.32164 12 7.32164C14.5836 7.32164 16.6784 9.41637 16.6784 12C16.6784 14.5848 14.5836 16.6784 12 16.6784Z" fill="white"/>
</svg>
