<svg width="18" height="30" viewBox="0 0 18 30" fill="none" xmlns="http://www.w3.org/2000/svg">
<path d="M9.13033 0C4.70834 0 1.1237 3.37748 1.1237 7.54367C1.1237 11.71 4.70834 15.0877 9.13033 15.0877C13.5523 15.0877 17.137 11.71 17.137 7.54367C17.137 3.37748 13.5523 0 9.13033 0ZM9.13033 10.6623C7.30244 10.6623 5.82057 9.26598 5.82057 7.54378C5.82057 5.82158 7.30244 4.4254 9.13033 4.4254C10.9582 4.4254 12.4401 5.82158 12.4401 7.54378C12.4401 9.26598 10.9582 10.6623 9.13033 10.6623ZM11.957 21.2293L16.7954 25.7473C17.6463 26.5477 17.6473 27.8464 16.7978 28.648C15.9483 29.4496 14.5701 29.4509 13.719 28.6503L9.02171 24.3405L4.75532 28.6226C4.32816 29.04 3.75836 29.25 3.18798 29.25C2.64395 29.25 2.09946 29.0592 1.67701 28.6755C0.811468 27.8891 0.786376 26.5906 1.62098 25.7752L6.21347 21.2531C2.91825 20.6524 0.918143 19.1849 0.815135 19.1071C-0.122818 18.3984 -0.273491 17.1075 0.478728 16.2236C1.23083 15.3399 2.60087 15.1979 3.53905 15.9066C3.55887 15.9217 5.65088 17.4024 9.0216 17.4045C12.3924 17.4024 14.4411 15.9217 14.4609 15.9066C15.3991 15.1979 16.7692 15.3399 17.5213 16.2236C18.2735 17.1075 18.1228 18.3984 17.1849 19.1071C17.0832 19.1839 15.1624 20.614 11.957 21.2293Z" fill="white"/>
</svg>
