<svg width="30" height="18" viewBox="0 0 30 18" fill="none" xmlns="http://www.w3.org/2000/svg">
<path fill-rule="evenodd" clip-rule="evenodd" d="M29.3117 1.67603C29.5201 0.9982 29.3117 0.5 28.3191 0.5H25.0371C24.2025 0.5 23.8178 0.930325 23.6092 1.40476C23.6092 1.40476 21.9403 5.3707 19.5758 7.94671C18.8109 8.69241 18.4632 8.92963 18.0459 8.92963C17.8373 8.92963 17.5353 8.69241 17.5353 8.01458V1.67603C17.5353 0.862452 17.2932 0.5 16.5976 0.5H11.4402C10.9186 0.5 10.6049 0.877535 10.6049 1.23542C10.6049 2.00648 11.7871 2.18451 11.909 4.35373V9.06537C11.909 10.0983 11.7177 10.2857 11.3005 10.2857C10.1878 10.2857 7.48136 6.30197 5.87621 1.7439C5.56161 0.857881 5.24607 0.5 4.40728 0.5H1.12526C0.187543 0.5 0 0.930325 0 1.40476C0 2.25215 1.1126 6.45531 5.18066 12.0143C7.89278 15.8105 11.714 17.8684 15.191 17.8684C17.2772 17.8684 17.5353 17.4114 17.5353 16.6241V13.7548C17.5353 12.8407 17.733 12.6584 18.3936 12.6584C18.8803 12.6584 19.7148 12.8956 21.662 14.7259C23.8875 16.8953 24.2543 17.8684 25.506 17.8684H28.788C29.7257 17.8684 30.1945 17.4114 29.924 16.5093C29.6282 15.6103 28.5655 14.3061 27.1559 12.76C26.3909 11.8786 25.2434 10.9297 24.8957 10.4551C24.4088 9.8449 24.5481 9.57363 24.8957 9.03132C24.8957 9.03132 28.8944 3.54039 29.3117 1.67603Z" fill="white"/>
</svg>
